<?xml version="1.0" standalone="no"?>
<!DOCTYPE svg PUBLIC "-//W3C//DTD SVG 20010904//EN"
 "http://www.w3.org/TR/2001/REC-SVG-20010904/DTD/svg10.dtd">
<svg version="1.0" xmlns="http://www.w3.org/2000/svg"
 width="648.000000pt" height="648.000000pt" viewBox="0 0 648.000000 648.000000"
 preserveAspectRatio="xMidYMid meet">
<metadata>
Created by potrace 1.11, written by Peter Selinger 2001-2013
</metadata>
<g transform="translate(0.000000,648.000000) scale(0.100000,-0.100000)"
fill="#000000" stroke="none">
<path d="M3078 5375 c-3 -3 -62 -6 -343 -20 -119 -6 -307 -15 -380 -20 -38 -2
-124 -7 -190 -10 -66 -4 -147 -8 -180 -11 -33 -2 -107 -6 -165 -9 -58 -3 -132
-7 -165 -10 -33 -3 -96 -7 -140 -10 -310 -19 -503 -37 -605 -56 -280 -53 -392
-169 -475 -489 -9 -36 -19 -76 -22 -90 -2 -14 -10 -50 -18 -80 -7 -30 -16 -68
-18 -85 -3 -16 -13 -64 -22 -105 -9 -41 -19 -86 -21 -100 -3 -14 -16 -77 -29
-140 -13 -63 -26 -126 -29 -140 -2 -14 -16 -81 -30 -150 -14 -69 -28 -141 -31
-160 -3 -19 -10 -53 -15 -75 -5 -22 -11 -56 -14 -75 -5 -33 -9 -51 -21 -110
-3 -14 -7 -43 -11 -65 -3 -22 -12 -71 -19 -110 -8 -38 -16 -91 -20 -117 -3
-26 -7 -53 -10 -60 -2 -7 -7 -31 -10 -52 -3 -21 -7 -48 -10 -60 -2 -12 -7 -43
-11 -71 -11 -87 -12 -93 -18 -122 -3 -15 -8 -48 -11 -73 -3 -25 -8 -56 -10
-70 -3 -14 -8 -45 -10 -70 -3 -25 -9 -72 -14 -105 -10 -64 -7 -377 4 -435 88
-474 373 -781 825 -892 179 -43 505 -34 715 20 44 12 238 53 270 58 11 1 45 8
75 14 61 12 355 57 422 65 24 3 66 7 93 11 28 3 66 7 85 9 39 5 123 12 215 20
416 33 1106 14 1470 -40 17 -3 53 -7 80 -10 28 -4 73 -10 100 -15 28 -5 73
-12 100 -16 28 -4 55 -8 60 -10 6 -1 28 -5 50 -8 22 -4 47 -8 55 -11 8 -2 32
-6 52 -9 20 -3 79 -15 130 -27 51 -11 100 -22 108 -24 8 -2 62 -13 120 -26
143 -31 445 -34 585 -5 341 70 602 273 744 578 84 180 112 329 107 578 -2 96
-6 184 -9 195 -2 11 -8 45 -12 75 -3 30 -8 66 -10 80 -2 14 -6 45 -10 70 -3
25 -8 56 -10 70 -2 14 -7 45 -10 70 -4 25 -15 99 -26 165 -11 66 -22 131 -24
145 -8 52 -35 206 -40 230 -3 14 -8 41 -11 60 -3 19 -14 79 -25 133 -10 53
-21 112 -24 130 -11 59 -115 580 -135 672 -30 138 -72 329 -74 340 -39 157
-105 283 -192 368 -77 76 -237 144 -379 163 -27 3 -57 8 -66 9 -16 3 -110 11
-254 20 -77 5 -120 8 -345 20 -58 3 -134 8 -170 10 -36 3 -119 7 -185 10 -66
3 -151 7 -190 10 -38 2 -122 7 -185 10 -63 3 -146 8 -185 10 -38 3 -126 7
-195 10 -69 4 -159 8 -200 11 -106 6 -427 13 -432 9z m1662 -418 c41 -3 90 -8
108 -11 36 -7 144 -47 182 -67 100 -55 199 -153 254 -252 30 -55 202 -549 388
-1117 33 -102 64 -194 69 -205 38 -92 204 -677 225 -790 28 -159 30 -238 7
-320 -29 -99 -77 -161 -198 -250 -65 -48 -107 -73 -255 -152 -82 -44 -329
-147 -336 -141 -13 14 20 48 85 87 435 258 567 664 397 1226 -20 66 -171 500
-282 805 -51 143 -194 491 -233 571 -71 142 -150 230 -271 297 -89 50 -156 68
-350 96 -96 13 -201 27 -241 31 -43 4 -90 10 -186 20 -27 3 -73 8 -103 10 -30
2 -84 6 -120 9 -349 26 -1092 27 -1295 2 -16 -2 -74 -7 -128 -11 -54 -3 -106
-8 -115 -10 -9 -1 -51 -6 -92 -10 -41 -4 -86 -8 -100 -10 -14 -2 -50 -6 -80
-10 -30 -3 -66 -8 -80 -10 -14 -2 -45 -6 -70 -10 -25 -3 -56 -8 -70 -10 -14
-3 -41 -7 -60 -10 -111 -17 -152 -29 -215 -58 -80 -39 -169 -115 -214 -185
-45 -71 -185 -457 -346 -957 -48 -148 -95 -295 -105 -325 -22 -66 -162 -503
-186 -580 -10 -35 -18 -100 -20 -180 -3 -112 -1 -132 21 -198 30 -88 74 -158
141 -228 43 -44 155 -134 168 -134 14 0 189 -125 241 -173 33 -31 -291 76
-407 133 -108 54 -195 117 -251 181 -45 51 -98 148 -112 204 -4 17 -9 39 -12
50 -14 52 -10 284 7 380 46 258 161 639 355 1175 36 102 99 280 140 395 135
388 158 436 262 541 143 146 282 197 553 203 80 1 146 4 148 6 5 5 2702 -3
2782 -8z"/>
</g>
</svg>
